<svg xmlns="http://www.w3.org/2000/svg" viewBox="0 0 40 40">
  <defs>
    <style>
      .a8079fb0-0627-4629-b38f-29c3db7215ff {
        fill: #d43c37;
        stroke: #d43c37;
        stroke-miterlimit: 10;
        stroke-width: 1.5px;
      }
    </style>
  </defs>
  <g id="bfc47538-f2f8-40fc-920c-c554cf6b37c8" data-name="FONT">
    <path class="a8079fb0-0627-4629-b38f-29c3db7215ff" d="M38.09,28h-11l-.05-.17a2.25,2.25,0,0,0-.05-.22c-.05-.18-.12-.35-.18-.53l0-.08a.78.78,0,0,0-.05-.14,5.93,5.93,0,0,0-.34-.72l-.06-.09a4,4,0,0,0-.27-.44,6,6,0,0,1,12,.54V28Zm-12,3.5H14V29.7a5.45,5.45,0,0,1,.08-.95,6,6,0,0,1,10.84-2.57A6.17,6.17,0,0,1,26,28.75a5.61,5.61,0,0,1,.09.95ZM13,28H2V26.19a6,6,0,0,1,12-.55A7.28,7.28,0,0,0,13,28ZM4,13.88A4.07,4.07,0,1,1,8,18,4.07,4.07,0,0,1,4,13.88Zm12,3.51A4.07,4.07,0,1,1,20,21.45,4.07,4.07,0,0,1,16,17.39Zm12-3.51A4.07,4.07,0,1,1,32.06,18,4.06,4.06,0,0,1,28,13.88ZM39.33,29V26.19a7.28,7.28,0,0,0-6-7.16,5.31,5.31,0,1,0-2.49,0A7.25,7.25,0,0,0,25,24.42a7.21,7.21,0,0,0-3.75-1.88,5.31,5.31,0,1,0-2.48,0A7.27,7.27,0,0,0,15,24.42,7.24,7.24,0,0,0,9.25,19a5.32,5.32,0,1,0-2.49,0,7.27,7.27,0,0,0-6,7.16V29a.27.27,0,0,0,.27.27H12.78a3,3,0,0,0,0,.42v2.82a.27.27,0,0,0,.27.27H27a.27.27,0,0,0,.27-.27V29.7c0-.13,0-.27,0-.42H39.07a.27.27,0,0,0,.26-.27Z"/>
  </g>
</svg>