<svg xmlns="http://www.w3.org/2000/svg" viewBox="0 0 40 40">
  <defs>
    <style>
      .b218885c-562a-4f71-8a88-4369f7ccedbb {
        fill: #d43c37;
      }
    </style>
  </defs>
  <g id="bc3b28d5-e316-4328-9c78-82fe82637130" data-name="FONT">
    <path class="b218885c-562a-4f71-8a88-4369f7ccedbb" d="M17.16,34.16a.91.91,0,0,1-.28-.68l.08-7.2A.33.33,0,0,0,16.8,26a.26.26,0,0,0-.32.08L9.76,30a1.24,1.24,0,0,1-.48.16,1,1,0,0,1-.88-.56L6.16,25.4A1.23,1.23,0,0,1,6,24.84a.82.82,0,0,1,.56-.8l6.72-3.6q.39-.24,0-.48L6.56,16.52A.83.83,0,0,1,6,16a1,1,0,0,1,.12-.8L8.4,11a1.11,1.11,0,0,1,.6-.52.89.89,0,0,1,.76.12l6.72,3.84a.36.36,0,0,0,.32,0,.33.33,0,0,0,.16-.32l-.08-7a.91.91,0,0,1,.28-.68.9.9,0,0,1,.68-.28H22.4a.93.93,0,0,1,.68.28,1,1,0,0,1,.28.68l-.08,7a.31.31,0,0,0,.16.32.36.36,0,0,0,.32,0l6.72-3.84a1.14,1.14,0,0,1,.48-.16,1,1,0,0,1,.88.56l2.24,4.16a1.37,1.37,0,0,1,.16.56.78.78,0,0,1-.56.72L26.88,20q-.4.24,0,.48l6.8,3.6a.85.85,0,0,1,.52.56,1,1,0,0,1-.12.8l-2.24,4.16a1.11,1.11,0,0,1-.6.52.89.89,0,0,1-.76-.12L23.76,26a.26.26,0,0,0-.32-.08.31.31,0,0,0-.16.32l.08,7.2a1,1,0,0,1-.28.68.93.93,0,0,1-.68.28H17.84A.9.9,0,0,1,17.16,34.16Z"/>
  </g>
</svg>
