<svg id="e65888f0-d8c5-4473-8dc8-a69f7e75b6ef" data-name="Layer 1" xmlns="http://www.w3.org/2000/svg" viewBox="0 0 70 70">
  <defs>
    <style>
      .b45bd39d-94b6-4bed-b087-9a4f8c77d01f {
        fill: #fff;
      }
    </style>
  </defs>
  <circle cx="35" cy="35" r="35"/>
  <path class="b45bd39d-94b6-4bed-b087-9a4f8c77d01f" d="M49.15,26.55a3.83,3.83,0,0,0,1.2-2.8,4,4,0,0,0-1.2-2.9,3.83,3.83,0,0,0-2.8-1.2,3.94,3.94,0,0,0-2.9,1.2L35,29.35l-8.4-8.5a3.83,3.83,0,0,0-2.8-1.2,4.1,4.1,0,0,0-4.1,4.1,3.83,3.83,0,0,0,1.2,2.8l8.5,8.4-8.5,8.5a3.94,3.94,0,0,0-1.2,2.9,3.83,3.83,0,0,0,1.2,2.8,4,4,0,0,0,2.9,1.2,3.83,3.83,0,0,0,2.8-1.2l8.4-8.5,8.5,8.5a3.94,3.94,0,0,0,2.9,1.2,4.1,4.1,0,0,0,4-4,3.94,3.94,0,0,0-1.2-2.9L40.65,35Z"/>
</svg>
