<svg id="b3a851b5-689e-44b6-ac82-8aad8519ad1d" data-name="Layer 1" xmlns="http://www.w3.org/2000/svg" viewBox="0 0 70 70">
  <defs>
    <style>
      .a0692c97-52d9-4a92-ab1f-d109fbd0c64d {
        fill: #373737;
      }

      .a1b5a938-9c6c-4273-96f5-4b73426ede9e {
        fill: #fff;
      }
    </style>
  </defs>
  <circle class="a0692c97-52d9-4a92-ab1f-d109fbd0c64d" cx="35" cy="35" r="35"/>
  <path class="a1b5a938-9c6c-4273-96f5-4b73426ede9e" d="M49.15,26.55a3.83,3.83,0,0,0,1.2-2.8,4,4,0,0,0-1.2-2.9,3.83,3.83,0,0,0-2.8-1.2,3.94,3.94,0,0,0-2.9,1.2L35,29.35l-8.4-8.5a3.83,3.83,0,0,0-2.8-1.2,4.1,4.1,0,0,0-4.1,4.1,3.83,3.83,0,0,0,1.2,2.8l8.5,8.4-8.5,8.5a3.94,3.94,0,0,0-1.2,2.9,3.83,3.83,0,0,0,1.2,2.8,4,4,0,0,0,2.9,1.2,3.83,3.83,0,0,0,2.8-1.2l8.4-8.5,8.5,8.5a3.94,3.94,0,0,0,2.9,1.2,4.1,4.1,0,0,0,4-4,3.94,3.94,0,0,0-1.2-2.9L40.65,35Z"/>
</svg>