<svg width="30" height="30" xmlns="http://www.w3.org/2000/svg">
  <ellipse cx="15" cy="15" rx="15" ry="15" />
  <svg width="25" height="25" viewBox="-7 -7 30 30" fill="#f3f3f3" xmlns="http://www.w3.org/2000/svg">
    <path d="M18.4096 0.923451C17.2412 -0.298051 15.3604 -0.298051 14.192 0.923451L10.2594 5.00506C9.09096 6.22656 9.09096 8.19288 10.2594 9.41438L10.4018 9.56335L11.7982 8.1035L11.6557 7.95454C11.2568 7.53744 11.2568 6.882 11.6272 6.49469L11.6557 6.4649L15.5884 2.3833C15.9873 1.9662 16.6143 1.9662 16.9847 2.3535L17.0132 2.3833L19.7205 5.2434C20.091 5.6605 20.091 6.28615 19.7205 6.70324L15.8163 10.7848C15.4174 11.1722 14.8189 11.1722 14.42 10.7848L14.2775 10.6359L12.8241 12.0957L12.9666 12.2447C14.135 13.4662 16.0158 13.4662 17.1842 12.2447L21.1169 8.19288C22.2853 6.97138 22.2853 5.00506 21.1169 3.78355L18.4096 0.923451Z"/>
    <path d="M11.57 13.407L10.1451 14.8669L10.2876 15.0158C10.6865 15.4329 10.6865 16.0884 10.3161 16.4757L10.2876 16.5055L6.41193 20.6169C6.01297 21.034 5.38603 21.034 5.01556 20.6467L4.98706 20.6169L2.27981 17.7568C1.88085 17.3397 1.88085 16.6842 2.25131 16.2969L2.27981 16.2671L6.18395 12.2153C6.58292 11.828 7.18136 11.828 7.58033 12.2153L7.72281 12.3643L9.14768 10.9044L9.0052 10.7555C7.8368 9.53398 5.95597 9.53398 4.78758 10.7555L0.883436 14.8073C-0.284957 16.0288 -0.284957 17.9951 0.883436 19.2166L3.59069 22.0767C4.75908 23.2982 6.63991 23.2982 7.80831 22.0767L11.7409 17.9951C12.9093 16.7736 12.9093 14.8073 11.7409 13.5858L11.57 13.407Z" />
    <path d="M6.18373 16.5352C6.5827 16.9225 7.18114 16.9225 7.58011 16.5352L15.8159 7.92511C16.1578 7.47821 16.0438 6.82277 15.6164 6.46526C15.2744 6.19713 14.7614 6.19713 14.4195 6.46526L6.18373 15.0754C5.81327 15.4925 5.81327 16.1181 6.18373 16.5352Z" />
  </svg>
</svg>

