<svg xmlns="http://www.w3.org/2000/svg" viewBox="0 0 40 40">
  <defs>
    <style>
      .b62f329d-3a97-4bf5-bf04-8b245b61d339 {
        fill: #d43c37;
      }
    </style>
  </defs>
  <g id="bf30a59a-3133-4682-8cc8-34947b30d0e9" data-name="FONT">
    <path class="b62f329d-3a97-4bf5-bf04-8b245b61d339" d="M34.66,13a1.84,1.84,0,1,1,1.84-1.84A1.82,1.82,0,0,1,34.66,13ZM26,27.09a1.84,1.84,0,1,1,1.84-1.84A1.84,1.84,0,0,1,26,27.09ZM5.29,30.59a1.84,1.84,0,0,1,0-3.68,1.59,1.59,0,0,1,.9.26c.09.09.17.13.26.21a.19.19,0,0,0,.17.09,1.92,1.92,0,0,1,.51,1.28,1.89,1.89,0,0,1-1.84,1.84Zm9.4-17.76a1.84,1.84,0,1,1-1.84,1.83A1.82,1.82,0,0,1,14.69,12.83Zm20-6.92a5.25,5.25,0,0,0-5.25,5.25A5.07,5.07,0,0,0,31.12,15l-4.06,5.12A4.07,4.07,0,0,0,26,20a5.25,5.25,0,0,0-1.63.26l-5-3.33a5.32,5.32,0,0,0,.56-2.31,5.26,5.26,0,1,0-9,3.63l-4,5.55a5.31,5.31,0,0,0-1.67-.25,5.25,5.25,0,1,0,5.25,5.25,5.69,5.69,0,0,0-.85-2.91L14,19.83a4,4,0,0,0,.69,0,5.22,5.22,0,0,0,2.17-.47l4.74,3.12a5.25,5.25,0,1,0,9.73,2.73,5.32,5.32,0,0,0-1.23-3.37l4.35-5.55h.3A5.25,5.25,0,0,0,40,11.08a5.37,5.37,0,0,0-5.34-5.17Z"/>
  </g>
</svg>