<svg xmlns="http://www.w3.org/2000/svg" viewBox="0 0 40 40">
  <defs>
    <style>
      .bd975af2-b370-4e2e-9e33-21dd2d8c9c43 {
        fill: #d43c37;
      }
    </style>
  </defs>
  <g id="bb7db766-22d7-4fbf-9ed1-c9c419d8e1db" data-name="FONT">
    <path class="bd975af2-b370-4e2e-9e33-21dd2d8c9c43" d="M36.25,30a3.13,3.13,0,0,1-3.14,3.13H11.38a6.24,6.24,0,0,0,.38-2.1V7.82a.93.93,0,0,1,.93-.93H35.32a.93.93,0,0,1,.66.27,1,1,0,0,1,.27.66ZM8,31a2.1,2.1,0,0,1-2.11,2.1A2.14,2.14,0,0,1,3.75,31V19.3a.94.94,0,0,1,.93-.94H8ZM35.32,3.14H12.69A4.69,4.69,0,0,0,8,7.82v6.79H4.68A4.69,4.69,0,0,0,0,19.3V31a5.9,5.9,0,0,0,5.9,5.85H33.11A6.88,6.88,0,0,0,40,30V7.82a4.68,4.68,0,0,0-4.68-4.68Z"/>
    <path class="bd975af2-b370-4e2e-9e33-21dd2d8c9c43" d="M16.49,14.71h7.26a1.88,1.88,0,0,0,0-3.75H16.49a1.88,1.88,0,1,0,0,3.75Z"/>
    <path class="bd975af2-b370-4e2e-9e33-21dd2d8c9c43" d="M30.73,17.47H16.49a1.88,1.88,0,1,0,0,3.75H30.73a1.88,1.88,0,0,0,0-3.75Z"/>
    <path class="bd975af2-b370-4e2e-9e33-21dd2d8c9c43" d="M30.73,23.93H16.49a1.88,1.88,0,1,0,0,3.75H30.73a1.88,1.88,0,0,0,0-3.75Z"/>
  </g>
</svg>