<svg xmlns="http://www.w3.org/2000/svg" viewBox="0 0 40 40">
  <defs>
    <style>
      .b98b3830-b7a2-4fe1-9048-f3655b5cc932 {
        fill: #d43c37;
      }
    </style>
  </defs>
  <g id="a5bbe1d4-7a05-40ce-8ee9-cf84196bb478" data-name="FONT">
    <path class="b98b3830-b7a2-4fe1-9048-f3655b5cc932" d="M4,32.78,20,5.12l16,27.66Zm35.39-2-16-27.67a4,4,0,0,0-6.91,0L.53,30.79a4,4,0,0,0,3.46,6H35.93a4,4,0,0,0,3.45-6Z"/>
    <path class="b98b3830-b7a2-4fe1-9048-f3655b5cc932" d="M18,14.32v8.31a2,2,0,1,0,4,0V14.32a2,2,0,0,0-4,0Z"/>
    <path class="b98b3830-b7a2-4fe1-9048-f3655b5cc932" d="M22,28.15a2,2,0,1,1-4,0,2,2,0,0,1,4,0"/>
  </g>
</svg>